<svg xmlns="http://www.w3.org/2000/svg" width="16" height="16" fill="none"><path d="M6.302 10.068l.26.001c3.852.034 6.042.833 6.042 2.974 0 2.09-2.085 2.888-5.787 2.953L6.302 16C2.288 16 0 15.214 0 13.026c0-2.186 2.278-2.958 6.302-2.958zm0 1.213l-.27.001c-3.19.03-4.832.618-4.832 1.744 0 1.164 1.74 1.762 5.102 1.762 3.365 0 5.101-.588 5.101-1.745 0-1.164-1.74-1.762-5.101-1.762zm7.461-6.497c.304 0 .555.228.595.524l.005.083v1.014H15.4c.331 0 .6.271.6.606 0 .307-.226.56-.519.6l-.081.006h-1.037v1.015a.603.603 0 01-.6.606.602.602 0 01-.594-.524l-.006-.082V7.617h-1.035a.603.603 0 01-.6-.606c0-.307.226-.56.518-.6l.082-.006h1.035V5.39c0-.335.269-.607.6-.607zM6.302 0c2.36 0 4.254 1.914 4.254 4.298 0 2.385-1.894 4.299-4.254 4.299-2.36 0-4.255-1.915-4.255-4.299C2.047 1.914 3.942 0 6.302 0zm0 1.212c-1.697 0-3.055 1.372-3.055 3.086 0 1.715 1.358 3.087 3.055 3.087s3.054-1.372 3.054-3.087S8 1.212 6.302 1.212z" fill="#fff"/></svg>